<svg width="250" height="250" viewBox="0 0 250 250" fill="none" xmlns="http://www.w3.org/2000/svg"><path d="M103.621 94.4676C100.583 95.5755 97.2921 101.392 96.0264 104.162C96.0264 109.701 98.5579 109.701 103.621 108.316C108.684 106.932 109.95 104.162 111.216 98.6222C112.481 93.0827 107.418 93.0827 103.621 94.4676Z" fill="#848998"></path><path opacity="0.4" d="M96.0259 98.6286C94.7932 103.559 92.3279 104.792 91.0953 108.49C89.8626 115.886 100.956 114.653 103.422 110.955C105.887 107.257 107.12 110.955 112.05 108.49C116.981 106.024 114.516 104.792 113.283 101.094C112.05 97.3959 114.516 96.1633 114.516 92.4653C114.516 88.7673 112.05 90 107.12 91.2327C102.189 92.4653 104.654 91.2327 99.7238 91.2327C94.7932 91.2327 97.2585 93.698 96.0259 98.6286Z" fill="#848998"></path><rect x="50" y="48" width="108" height="108" rx="9" stroke="#848998" stroke-width="2"></rect><rect x="55.4" y="53.4" width="97.2" height="97.2" rx="4.6" stroke="#848998" stroke-width="0.8"></rect><circle cx="56.5" cy="59.5" r="31" fill="white" stroke="#71E05C" stroke-width="3"></circle><path d="M42.421 60.6222C41.8597 60.053 41.8597 59.1301 42.421 58.5609L43.941 57.0196C44.5024 56.4504 45.4125 56.4504 45.9739 57.0196L54.7818 65.9507C55.3432 66.52 55.3432 67.4429 54.7818 68.0121L53.2618 69.5533C52.7005 70.1226 51.7903 70.1226 51.2289 69.5533L42.421 60.6222Z" fill="#71E05C"></path><path d="M69.0313 48.4275C69.592 47.8575 70.5009 47.8575 71.0616 48.4275L72.5795 49.9708C73.1402 50.5408 73.1402 51.4649 72.5795 52.0349L54.346 70.5725C53.7854 71.1425 52.8764 71.1425 52.3158 70.5725L50.7979 69.0292C50.2372 68.4592 50.2372 67.5351 50.7979 66.9651L69.0313 48.4275Z" fill="#71E05C"></path><rect x="57" y="167" width="66" height="3" rx="1.5" fill="#848998"></rect><rect x="57" y="176" width="94" height="2" rx="1" fill="#848998"></rect><rect x="57" y="185" width="94" height="2" rx="1" fill="#848998"></rect><rect x="57" y="194" width="94" height="2" rx="1" fill="#848998"></rect><rect x="57" y="203" width="94" height="2" rx="1" fill="#848998"></rect><rect x="57" y="212" width="48" height="2" rx="1" fill="#848998"></rect><rect x="138" y="60" width="87" height="30" rx="7" fill="#6B92C6"></rect><path d="M154.513 77.5308C154.513 78.3475 154.216 78.9844 153.624 79.4414C153.032 79.8984 152.228 80.127 151.212 80.127C150.112 80.127 149.265 79.9852 148.673 79.7017V78.6606C149.054 78.8215 149.468 78.9484 149.917 79.0415C150.366 79.1346 150.81 79.1812 151.25 79.1812C151.969 79.1812 152.511 79.0457 152.875 78.7749C153.239 78.4998 153.421 78.119 153.421 77.6323C153.421 77.3107 153.355 77.0483 153.224 76.8452C153.097 76.6379 152.881 76.4474 152.577 76.2739C152.276 76.1004 151.817 75.9036 151.199 75.6836C150.336 75.3747 149.718 75.0086 149.346 74.5854C148.978 74.1623 148.793 73.61 148.793 72.9287C148.793 72.2135 149.062 71.6444 149.6 71.2212C150.137 70.798 150.848 70.5864 151.732 70.5864C152.655 70.5864 153.503 70.7557 154.278 71.0942L153.941 72.0337C153.175 71.7121 152.431 71.5513 151.707 71.5513C151.136 71.5513 150.689 71.674 150.368 71.9194C150.046 72.1649 149.885 72.5055 149.885 72.9414C149.885 73.263 149.944 73.5275 150.063 73.7349C150.181 73.938 150.38 74.1263 150.66 74.2998C150.943 74.4691 151.375 74.6574 151.955 74.8647C152.928 75.2118 153.597 75.5841 153.96 75.9819C154.329 76.3797 154.513 76.896 154.513 77.5308ZM160.53 80L160.321 79.0098H160.27C159.923 79.4456 159.576 79.7419 159.229 79.8984C158.886 80.0508 158.457 80.127 157.94 80.127C157.251 80.127 156.709 79.9492 156.315 79.5938C155.926 79.2383 155.731 78.7326 155.731 78.0767C155.731 76.6717 156.855 75.9354 159.102 75.8677L160.283 75.8296V75.3979C160.283 74.8521 160.164 74.45 159.927 74.1919C159.694 73.9295 159.32 73.7983 158.804 73.7983C158.224 73.7983 157.568 73.9761 156.836 74.3315L156.512 73.5254C156.855 73.3392 157.229 73.1932 157.636 73.0874C158.046 72.9816 158.457 72.9287 158.867 72.9287C159.697 72.9287 160.31 73.1128 160.708 73.481C161.11 73.8491 161.311 74.4395 161.311 75.252V80H160.53ZM158.15 79.2573C158.806 79.2573 159.32 79.0775 159.692 78.7178C160.069 78.3581 160.257 77.8545 160.257 77.207V76.5786L159.204 76.623C158.366 76.6527 157.761 76.7839 157.388 77.0166C157.02 77.2451 156.836 77.6027 156.836 78.0894C156.836 78.4702 156.95 78.7601 157.179 78.959C157.411 79.1579 157.735 79.2573 158.15 79.2573ZM165.012 80L162.371 73.043H163.501L164.999 77.1689C165.338 78.1338 165.536 78.7601 165.596 79.0479H165.646C165.693 78.8236 165.839 78.3602 166.084 77.6577C166.334 76.951 166.891 75.4128 167.754 73.043H168.884L166.243 80H165.012ZM172.94 80.127C171.912 80.127 171.099 79.8138 170.502 79.1875C169.91 78.5612 169.614 77.6916 169.614 76.5786C169.614 75.4572 169.889 74.5664 170.439 73.9062C170.993 73.2461 171.736 72.916 172.667 72.916C173.539 72.916 174.229 73.2038 174.736 73.7793C175.244 74.3506 175.498 75.106 175.498 76.0454V76.7119H170.706C170.727 77.5286 170.932 78.1486 171.321 78.5718C171.715 78.995 172.267 79.2065 172.978 79.2065C173.727 79.2065 174.468 79.05 175.2 78.7368V79.6763C174.827 79.8371 174.474 79.9513 174.14 80.019C173.81 80.091 173.41 80.127 172.94 80.127ZM172.654 73.7983C172.096 73.7983 171.649 73.9803 171.315 74.3442C170.985 74.7082 170.79 75.2118 170.731 75.855H174.368C174.368 75.1906 174.22 74.6828 173.924 74.3315C173.628 73.9761 173.204 73.7983 172.654 73.7983ZM183.852 72.916C184.16 72.916 184.438 72.9414 184.683 72.9922L184.537 73.9697C184.249 73.9062 183.995 73.8745 183.775 73.8745C183.213 73.8745 182.73 74.103 182.328 74.5601C181.93 75.0171 181.731 75.5863 181.731 76.2676V80H180.678V73.043H181.547L181.668 74.3315H181.719C181.977 73.8787 182.288 73.5296 182.652 73.2842C183.016 73.0387 183.416 72.916 183.852 72.916ZM188.923 80.127C187.895 80.127 187.083 79.8138 186.486 79.1875C185.893 78.5612 185.597 77.6916 185.597 76.5786C185.597 75.4572 185.872 74.5664 186.422 73.9062C186.977 73.2461 187.719 72.916 188.65 72.916C189.522 72.916 190.212 73.2038 190.72 73.7793C191.228 74.3506 191.481 75.106 191.481 76.0454V76.7119H186.689C186.71 77.5286 186.915 78.1486 187.305 78.5718C187.698 78.995 188.25 79.2065 188.961 79.2065C189.71 79.2065 190.451 79.05 191.183 78.7368V79.6763C190.811 79.8371 190.457 79.9513 190.123 80.019C189.793 80.091 189.393 80.127 188.923 80.127ZM188.638 73.7983C188.079 73.7983 187.633 73.9803 187.298 74.3442C186.968 74.7082 186.774 75.2118 186.714 75.855H190.352C190.352 75.1906 190.203 74.6828 189.907 74.3315C189.611 73.9761 189.188 73.7983 188.638 73.7983ZM197.772 78.1021C197.772 78.7495 197.531 79.2489 197.048 79.6001C196.566 79.9513 195.889 80.127 195.017 80.127C194.095 80.127 193.375 79.981 192.859 79.689V78.7114C193.193 78.8807 193.551 79.014 193.932 79.1113C194.317 79.2087 194.687 79.2573 195.042 79.2573C195.593 79.2573 196.016 79.1706 196.312 78.9971C196.608 78.8193 196.756 78.5506 196.756 78.1909C196.756 77.9201 196.638 77.6895 196.401 77.499C196.168 77.3044 195.711 77.0758 195.03 76.8135C194.382 76.5723 193.921 76.3628 193.646 76.1851C193.375 76.0031 193.172 75.7979 193.037 75.5693C192.905 75.3408 192.84 75.0679 192.84 74.7505C192.84 74.1834 193.07 73.737 193.532 73.4111C193.993 73.0811 194.626 72.916 195.43 72.916C196.179 72.916 196.911 73.0684 197.626 73.373L197.251 74.23C196.553 73.9422 195.921 73.7983 195.354 73.7983C194.854 73.7983 194.478 73.8766 194.224 74.0332C193.97 74.1898 193.843 74.4056 193.843 74.6807C193.843 74.8669 193.889 75.0256 193.982 75.1567C194.08 75.2879 194.234 75.4128 194.446 75.5312C194.657 75.6497 195.064 75.8211 195.665 76.0454C196.49 76.3459 197.046 76.6484 197.334 76.9531C197.626 77.2578 197.772 77.6408 197.772 78.1021ZM200.482 73.043V77.5562C200.482 78.1232 200.611 78.5464 200.87 78.8257C201.128 79.105 201.532 79.2446 202.082 79.2446C202.81 79.2446 203.341 79.0457 203.675 78.6479C204.014 78.2502 204.183 77.6006 204.183 76.6992V73.043H205.237V80H204.367L204.215 79.0669H204.158C203.942 79.4097 203.641 79.672 203.256 79.854C202.875 80.036 202.44 80.127 201.949 80.127C201.102 80.127 200.468 79.9259 200.044 79.5239C199.625 79.1219 199.416 78.4787 199.416 77.5942V73.043H200.482ZM208.531 80H207.478V70.123H208.531V80ZM213.013 79.2573C213.199 79.2573 213.379 79.2446 213.552 79.2192C213.726 79.1896 213.863 79.16 213.965 79.1304V79.9365C213.851 79.9915 213.681 80.036 213.457 80.0698C213.237 80.1079 213.038 80.127 212.86 80.127C211.515 80.127 210.842 79.4181 210.842 78.0005V73.8618H209.845V73.354L210.842 72.916L211.286 71.4307H211.896V73.043H213.914V73.8618H211.896V77.9561C211.896 78.375 211.995 78.6966 212.194 78.9209C212.393 79.1452 212.666 79.2573 213.013 79.2573Z" fill="white"></path></svg>